<svg id="Lag_1" data-name="Lag 1" xmlns="http://www.w3.org/2000/svg" viewBox="0 0 382.3 1012.53"><defs><style>.cls-1{fill:#fff;}</style></defs><title>completecone</title><path class="cls-1" d="M579.13,1048.49H196.83V36h382.3Zm-318.21-771C246.3,289,233.09,302,228.16,320.3c-3.09,11.46-1,24.42-4.54,35.63-4.33,13.56-4.2,25.18,4,36.7.38.53-.16,1.68-.18,2.54-.35,18.44,5,34.82,16.78,49.25,1.88,2.31,3,8,1.56,9.8-8.1,9.89-5.14,19.62-2,30.16,2.31,7.68,5.81,17.33,3.15,23.77-9.08,22-7.88,44.58-6.84,67.14.44,9.47,4.63,18.77,6.83,27.09-3,5.05-5.52,10-8.74,14.4-6.53,8.91-4.07,29.46,5.72,34.72s20.8,8.48,32.57,13.1a35.71,35.71,0,0,1,1.34,3.56c8.25,27.08,16.6,54.14,24.68,81.28,12.93,43.41,25.56,86.91,38.55,130.29,11.29,37.69,22.58,75.38,34.62,112.83,3,9.42,8.41,18.24,13.7,26.71,3.83,6.14,9.46,6,13.66-.18,3.33-4.92,6.81-10,8.67-15.59,9.79-29.22,19.72-58.42,28.39-88,11.16-38,20.71-76.57,31.79-114.64,12.32-42.33,25.92-84.29,38.15-126.64,2.45-8.5,6.11-11.1,14.43-13.52,8.86-2.58,21.12-4,22.92-17.29.7-5.19,1.65-10.4,1.75-15.61.11-5.43,1.46-13.22-1.46-15.87-9.39-8.53-11.84-15.92-2.22-25.53,1.62-1.62,2.47-4.56,2.66-7,1.06-12.9,11.25-25.29,2.31-38.78-.18-.27.28-1,.53-1.49,6.11-11.68,4.2-22.48-3-33.06-1.91-2.8-2.7-6.54-3.34-10-.8-4.26.29-9.27-1.57-12.85-5.47-10.53-12-20.51-18.48-31.3,10.82-17.59,6.32-40.4-11.16-50.61,7.33-24.34.07-47.68-5.14-71.18-.58-2.61-1.92-5.52-1.28-7.84,2.44-8.74,4.71-17.72,8.67-25.81s.28-13.11-3.13-19.44c-1.35-2.51-.65-7.86,1.26-10.09,10.06-11.75,14-25.86,16.92-40.44.52-2.64-1.24-5.69-.87-8.41,1.18-8.83,4.12-17.6,4.09-26.39-.09-23.19-7.4-44.23-18.77-64.66a136.23,136.23,0,0,0-35.21-41c-24.26-19.2-52.62-28.32-83.3-28.36-11,0-22.27,3.69-33,7-50.87,15.43-83.91,48.65-97.55,100.27-1.68,6.37,1.42,14.3-1,20.12-6,14.42-2.85,28.34-.79,42.52C246.45,240.55,242,260.18,260.92,277.49Z" transform="translate(-196.83 -35.96)"/><path d="M260.92,277.49c-18.91-17.31-14.47-36.93,3.36-49.9-2.06-14.19-5.23-28.11.79-42.52,2.43-5.82-.67-13.75,1-20.12,13.63-51.62,46.68-84.84,97.55-100.27,10.76-3.27,22-7,33-7,30.68,0,59,9.16,83.3,28.36a136.23,136.23,0,0,1,35.21,41c11.38,20.43,18.68,41.47,18.77,64.66,0,8.79-2.91,17.56-4.09,26.39-.36,2.72,1.4,5.77.87,8.41-2.89,14.58-6.85,28.69-16.92,40.44-1.91,2.23-2.61,7.58-1.26,10.09,3.4,6.33,7,11.49,3.13,19.44s-6.23,17.06-8.67,25.81c-.65,2.32.7,5.23,1.28,7.84,5.22,23.5,12.48,46.84,5.14,71.18,17.48,10.21,22,33,11.16,50.61,6.48,10.8,13,20.78,18.48,31.3,1.86,3.58.77,8.6,1.57,12.85.65,3.43,1.44,7.17,3.34,10,7.22,10.58,9.13,21.39,3,33.06-.25.48-.71,1.23-.53,1.49,8.94,13.5-1.24,25.89-2.31,38.78-.2,2.41-1,5.36-2.66,7-9.62,9.61-7.17,17,2.22,25.53,2.92,2.66,1.57,10.45,1.46,15.87-.1,5.21-1,10.42-1.75,15.61-1.8,13.27-14.06,14.71-22.92,17.29-8.31,2.42-12,5-14.43,13.52-12.23,42.36-25.83,84.31-38.15,126.64-11.08,38.07-20.63,76.59-31.79,114.64-8.67,29.56-18.6,58.76-28.39,88-1.86,5.55-5.35,10.67-8.67,15.59-4.2,6.21-9.83,6.32-13.66.18-5.29-8.48-10.67-17.3-13.7-26.71-12-37.45-23.33-75.15-34.62-112.83-13-43.39-25.62-86.89-38.55-130.29-8.08-27.14-16.43-54.19-24.68-81.28a35.71,35.71,0,0,0-1.34-3.56c-11.77-4.62-22.73-7.81-32.57-13.1s-12.25-25.81-5.72-34.72c3.23-4.4,5.71-9.34,8.74-14.4-2.21-8.33-6.4-17.62-6.83-27.09-1-22.55-2.23-45.13,6.84-67.14,2.66-6.45-.84-16.09-3.15-23.77-3.17-10.54-6.14-20.27,2-30.16,1.44-1.76.32-7.48-1.56-9.8-11.75-14.43-17.14-30.81-16.78-49.25,0-.86.56-2,.18-2.54-8.22-11.52-8.35-23.14-4-36.7,3.58-11.21,1.45-24.17,4.54-35.63C233.09,302,246.3,289,260.92,277.49ZM361.13,708c2.26,1.75,5.67,5.45,6.59,4.91,5.23-3.06,12.8-6.37,14-11,2.13-8.09-7.08-8.95-12.6-10-3.12-.6-7,2.72-10.55,4.27l3.5-6.41L352,693.1l-.69-1.77,6.1-2.1-10-4.23-3.24,13.7-1.45-.58,1-11.51-3,2.61c-19.89-7.8-41.12-12.1-58.91-26.5,7.43,23.35,15.94,45.55,24.07,67.89,2.37,6.52,3.64,13.44,5.42,20.19,2.83,3.47,7,7,9,11.54s7.67,10.83-1.67,14.86c-.46.2.72,4.19,1.13,6.42l5.89,18.76.21,6.66h0c3.77,13.17,7.36,26.39,11.37,39.49,3.89,12.69,8.21,25.25,12.35,37.86l.18-.24.29,6.46,5.66-1.23-.14-.17c-.87,4.55-3.29,9.48-2.31,13.59,2.17,9.07,5.9,17.8,9.32,26.53,1.34,3.43,5.46,6.75,5.08,9.7C366,954.11,370.62,965,377,975.71c2.32,3.9,4.4,8.73,4.34,13.1-.17,12,5.91,20.67,12,29.79,11.56-7.49,16.76-20,12.5-28.86l-7,1.8-.27-2.2,14.48-1.2,20-66.58-9.26,4.63,2.74,10.33c-6.52-7.62-6.82-11.88,1.16-15.83a17.13,17.13,0,0,0,7.88-9.47c7-23.51,13.47-47.19,19.88-70.88.43-1.59-1-3.69-1.62-5.55,3.08-7.8,6.62-15.46,8.83-23.5.42-1.54-4.39-4.53-6.79-6.85,4.41-9.66,6.12,2.16,9.53,1.49l3.6-13.35-9.64.87c5-4,9.87-6.86,13-11,2.52-3.29,3-8.2,4.26-12.41q14.9-48.66,29.74-97.33a45.29,45.29,0,0,0,1-5.25c-5.86,3.14-11.43,6.15-17,9.12-6.11,3.24-13.9,15.52-12.88,20.37-6.17-9.35-9.87-10-19.41-3.71a15.15,15.15,0,0,1-7,2.47c-10.62.65-21.58,2.69-31.81.86-10.94-2-21.14-6.41-31.4,1.42-.62.48-2.17-.26-3.47-.46,1.78,10.26-.09,11.78-20.63,19ZM285.32,254.42l-2.26,1.77c-3.75-4.59-8-8.87-11.14-13.84-6.44-10.18-6.2-10.33-13.54-1.94-.19.21-.63.19-.84.4-8.49,8-5.48,26.62,5.29,31.83,8.12,3.93,16.54,7.25,24.5,11.48,2.74,1.46,4.45,4.84,6.69,7.29,2,2.18,3.83,4.66,6.2,6.34,4.34,3.07,9.69,5,13.4,8.58,5.73,5.6,10.67,11.31,19.95,8,2-.71,5.1.08,7.07,1.24,8.6,5.05,16.86,10.7,25.51,15.64,2.06,1.18,5.74,1.53,7.7.47,6.47-3.49,11.68-3.38,16.62,2.56a11.8,11.8,0,0,0,6.41,3.73c9,1.69,20.27,6.88,26.5,3.34,9.2-5.22,17.28-.56,25.41-2.86a11.44,11.44,0,0,0,2.52-1.16c7.66-4.4,15.18-9.1,23-13.1,2.87-1.46,6.58-1.29,9.9-1.85,5.69-.95,11.35-2.11,17.07-2.77,9.12-1.05,7.59-8.34,8.89-14.2,1.17-5.26,4.05-10.38,4-15.56,0-3.77-3.49-7.53-5.43-11.3-2.12,2-4.8,3.59-6.26,6-8,13.09-33.88,24.07-50.24,19.8,3.55-.74,5.45-1.22,7.37-1.52,13.68-2.16,26.3-6.71,35.93-17.11,2.21-2.39,2.92-6.15,4.07-8.73,5.31-6.23,11.58-11.72,15.44-18.57,4.73-8.41,7.83-17.82,10.85-27.06,1.16-3.56.19-7.81.19-13.82.81-3.29,2.92-8.76,3.41-14.37,2.62-30.15-7.34-57.42-23-82C486.9,90.35,458,71.19,421.85,64.21c-26.55-5.13-52,0-76.58,10.35-25.43,10.65-42.86,30.51-59,51.64-17.74,23.23-18.08,51.38-20.14,78.64-1.09,14.41,4.67,27.78,12.8,39.83C281.11,247.89,283.19,251.17,285.32,254.42Zm-9.41,373.42c-8.92-.77-13.89-7.14-19-13.11-8.6-9.95-8.54-10-13.11,1.58-.32.8-1.1,1.41-1.49,2.2-1.88,3.82-6.29,9.17-5.09,11.23,4.56,7.81,4.65,19.07,17,21.64,10.25,2.13,19.9,6.68,30.71,7.13,2.9.12,5.58,4.25,8.47,6.39,2.57,1.91,5.08,4.13,8,5.3,5.48,2.2,11.84,2.76,16.73,5.78,8,4.94,15.24,9.86,24.94,4.19,1.86-1.09,5-1,7.22-.29,7.11,2.25,13.87,6,21.1,7.34,6.93,1.27,12.94,9.53,21,3.35,6.37-4.89,12.7-6.5,19.49-.54a9.77,9.77,0,0,0,6,2.3c11-.15,24.23,3,32.42-2,9.87-6,20.29-4.32,29.6-8.58a3.9,3.9,0,0,0,.84-.42c6.89-5.56,13.64-11.32,20.73-16.61a46.18,46.18,0,0,1,11.5-6.35c7.75-2.85,15.73-5.07,23.64-7.48,6.07-1.85,7.93-5.94,7.89-12.1,0-7.6.94-15.2,1.6-24.4-1.25-1.39-3.35-4.92-6.46-6.67-1.67-.94-7,.67-7.38,2-3.54,13.81-14.08,21.41-25.23,27.62-8.51,4.74-18.37,7-27.63,10.44l-1-3.07c2.81-1,5.58-2.07,8.42-2.94,14.18-4.33,26.86-11.17,35.7-23.37,2.62-3.61,3.29-8.63,5.34-14.35,4.12-.09,8.25-2.31,4.5-9.9,13.62-7.21,21.88-41.9,12.84-53.73,5.05-6.91,5.37-23.93,1.59-31.23-2.78-5.36-9.9-10.12-4.21-17.79.53-.72-.61-3-1.39-4.31-5.64-9.39-11.18-18.86-17.17-28-4.45-6.81-9.5-3.36-14.18.09-2.42,1.78-4.56,5.14-7.08,5.41-17.46,1.88-24,20.59-39.5,25.22-.47.14-.62,1.14-1.1,1.49-6.8,5.06-12.28,13.29-22.88,9.23a7.24,7.24,0,0,0-5.39.67c-9,5.06-18.17,9.83-26.51,15.79-5.64,4-10.4,4.63-16.59,2-2.23-.94-5.58.37-8.31,1.09-11.68,3.1-23.15,7.68-35,9.18-11.27,1.43-22.58-3.32-34.09-3.69-1.38,0-2.67-1.56-4.08-2.24-9.91-4.78-19.59-10.17-29.84-14-6.47-2.45-13.78-2.77-20.76-3.68-1.47-.19-4,.78-4.59,1.95-7.15,13.65-10.76,28.17-9.8,43.68.27,4.37.53,8.75.48,13.13,0,2.91-1.31,5.91-.88,8.69Q249,606.54,275.91,627.84ZM258.45,452.66c2.47,5.43,3.3,9.77,5.86,12.46,9.93,10.43,22.45,16,36.76,17.53,2.79.31,5.54,1,8.31,1.55l-.92,4c-10.75-2.83-22-4.52-32.12-8.8s-19.24-11.32-22.55-24c-2.29,1.9-3.69,3-5,4.18-6.13,5.36-1.23,11.81-1.56,17.7-.81,14.51,11.7,29.69,23.93,27.28,16.12-3.18,25.51,9.37,38.42,13.26,5.55,1.67,11.43,2.34,17.2,3.07,2.35.3,6.51-1.44,7-.59,5.57,9.51,13.37,3.83,20.21,3.21,10.22-.93,20.89-.72,28.17-10.42,1.07-1.43,6-1.69,7.85-.51,7.38,4.66,13.36,3.2,19.39-2.3a32.16,32.16,0,0,1,8-4.88c7.32-3.46,14.94-9.71,22.09-9.27,9.69.6,15.53-2.53,20.65-9.24,7.63-10,23.38-10.34,28.07-23.78.15-.44,1-.69,1.63-.89,7.37-2.51,14.82-3.35,21.28-9.73,5.63-5.56,12.32-8.66,14.56-17.82,2.15-8.78,4.49-15.71-5.94-20-.5-.21-.21-1.9-.7-2.62-1.27-1.86-2.78-3.57-4.19-5.34-1.78,1.51-3.92,2.76-5.25,4.6-2,2.79-3.14,6.25-5.25,8.95-3.28,4.19-7.08,8-10.66,11.93l-2-1.91c.68-1,1.32-2,2.05-3,16.37-21.43,24.94-44.44,14.7-71.37a8.25,8.25,0,0,1,0-4.13c1.88-10.52-2.74-19.26-6.23-27.87-5.4,1.21-9.74,3.38-13.72,2.85-13.73-1.84-22.84,7.9-34.09,12.24-5.49,2.12-11.53,2.85-17.37,4-1.33.26-3.28-1.09-4.19-.51-13.2,8.38-26.36,2.5-38.76-1.28-7.45-2.27-13.44-9-22.14-3.5-1.08.68-3.69-.45-5.3-1.3-8-4.25-16-8.72-24-13-2.87-1.55-6.33-4.73-8.65-4.07-7.54,2.12-12.8-1-17.9-5.48-5.7-5.05-9.92-12.41-19.17-11.89-.84,0-2.32-1.48-2.59-2.51-2.71-10.65-11.24-12.11-20.2-13.76-2.91-.54-5.29-3.89-8.54-6.45-19,13.51-31.15,31.9-36.62,54.83-.73,3-2.58,7.6-1.27,9,6,6.53.67,12.37-.92,17.68-3.14,10.46-.66,19.68,3.14,29,.64,1.58,2.74,3.15,2.51,4.43-3,17.18,6.25,30.59,13.48,44.56,1.47,2.84,4.55,4.82,6.78,7.29C255.15,448.69,257.41,451.45,258.45,452.66Zm57.14,321.41,2.85,1.94c.84-1.72,2.78-3.85,2.33-5.1-2.06-5.68-4.8-11.12-7.29-16.65l-3.23,1.4Z" transform="translate(-196.83 -35.96)"/><path class="cls-1" d="M285.32,254.42c-2.12-3.25-4.21-6.53-6.38-9.76-8.13-12.05-13.88-25.42-12.8-39.83,2.06-27.26,2.4-55.41,20.14-78.64,16.14-21.13,33.57-41,59-51.64,24.62-10.31,50-15.48,76.58-10.35,36.14,7,65.05,26.14,84.69,56.9,15.69,24.57,25.65,51.84,23,82-.49,5.61-2.6,11.08-3.41,14.37,0,6,1,10.27-.19,13.82-3,9.23-6.12,18.65-10.85,27.06-3.86,6.85-10.13,12.35-15.44,18.57-1.15,2.58-1.86,6.35-4.07,8.73-9.62,10.41-22.25,15-35.93,17.11-1.92.3-3.82.78-7.37,1.52,16.37,4.28,42.2-6.7,50.24-19.8,1.46-2.37,4.14-4,6.26-6,1.94,3.77,5.42,7.53,5.43,11.3,0,5.18-2.87,10.31-4,15.56-1.31,5.86.22,13.15-8.89,14.2-5.72.66-11.38,1.82-17.07,2.77-3.33.55-7,.39-9.9,1.85-7.87,4-15.38,8.7-23,13.1a11.44,11.44,0,0,1-2.52,1.16c-8.13,2.3-16.21-2.36-25.41,2.86-6.23,3.53-17.54-1.65-26.5-3.34a11.8,11.8,0,0,1-6.41-3.73c-4.94-5.94-10.15-6.05-16.62-2.56-2,1.06-5.65.7-7.7-.47-8.66-4.95-16.91-10.59-25.51-15.64-2-1.16-5.08-1.94-7.07-1.24-9.28,3.28-14.21-2.43-19.95-8-3.71-3.62-9.07-5.51-13.4-8.58-2.38-1.68-4.2-4.16-6.2-6.34-2.24-2.45-3.94-5.83-6.69-7.29-8-4.22-16.38-7.55-24.5-11.48-10.77-5.21-13.78-23.78-5.29-31.83.21-.2.65-.18.84-.4,7.35-8.39,7.1-8.24,13.54,1.94,3.15,5,7.39,9.25,11.14,13.84Zm206.39-8.76-39.15,7.62c16.33,7.75,25.1,8.28,33.82,1.94H465.79l26.61-8.78,15.15-10.49-50.31,6.83c.75.17,3.88,1.53,7,1.46,8.4-.18,16.79-1,25.2-1.36C490.14,242.84,490.94,244.69,491.7,245.66ZM443.5,90.14c-9.94,7.71-27.69,4.15-33.33-8.09l18.57,5.35-3.64,3.87L433.7,89c-6.75-8.2-14.81-8.38-22.94-7.67-1.75.15-4.51,2.06-4.68,3.44-.2,1.53,1.66,3.88,3.25,5a39.52,39.52,0,0,0,29.57,6.73c2.67-.41,6.41-2.84,7-5.07.54-2-2-5.78-4.21-7.32-12.35-8.65-26.37-11.8-41.2-10-3.77.45-9.33,3.22-10.17,6.07s2.18,8.38,5.11,10.72c15.64,12.5,34.16,16.69,53.8,16.66,2.06,0,4.11-1.38,6.17-2.11-1.91-1.27-3.4-1-4.9-.91-19.24,1.39-36.74-3.49-52.05-15.23-2.41-1.85-3.35-5.61-5-8.49,2.94-1.5,5.78-4,8.85-4.33C417.73,74.71,431.4,78.73,443.5,90.14Zm21.34,125.44c12.36,3.66,22.13,3.34,30.72-2.82,2.65-1.9,4.66-6.89,4.24-10.12-.3-2.29-5.15-4-8-6,1.65,3.63,5.83,7.06,5.25,8.38-1.31,3-4.66,6.2-7.77,7C482.14,213.86,474.62,214.28,464.84,215.58Zm46.66-42.65c-15.85,13.29-33.62,19.2-54.22,15.53C476.45,196.13,501.63,187.39,511.5,172.93ZM340.65,286.79l1.15-2.57-34.5-16.92-1.24,2.56ZM475,272.39l-34.11,5.46C453.3,280.89,465.15,281.12,475,272.39Z" transform="translate(-196.83 -35.96)"/><path class="cls-1" d="M275.91,627.84Q249,606.5,243.79,573c-.43-2.78.84-5.78.88-8.69.05-4.37-.21-8.76-.48-13.13-1-15.52,2.65-30,9.8-43.68.61-1.17,3.12-2.14,4.59-1.95,7,.91,14.29,1.24,20.76,3.68,10.25,3.88,19.93,9.26,29.84,14,1.41.68,2.7,2.2,4.08,2.24,11.51.37,22.82,5.12,34.09,3.69,11.87-1.5,23.34-6.09,35-9.18,2.72-.72,6.08-2,8.31-1.09,6.2,2.62,11,2,16.59-2,8.35-6,17.55-10.73,26.51-15.79a7.24,7.24,0,0,1,5.39-.67c10.61,4.06,16.08-4.17,22.88-9.23.48-.36.63-1.35,1.1-1.49,15.53-4.63,22-23.34,39.5-25.22,2.52-.27,4.66-3.63,7.08-5.41,4.68-3.44,9.73-6.89,14.18-.09,6,9.16,11.53,18.63,17.17,28,.78,1.31,1.92,3.59,1.39,4.31-5.69,7.68,1.43,12.43,4.21,17.79,3.79,7.3,3.46,24.32-1.59,31.23,9,11.84.78,46.52-12.84,53.73,3.76,7.59-.38,9.81-4.5,9.9-2,5.72-2.72,10.74-5.34,14.35-8.85,12.2-21.53,19-35.7,23.37-2.84.87-5.62,2-8.42,2.94l1,3.07c9.26-3.39,19.12-5.7,27.63-10.44,11.15-6.21,21.69-13.8,25.23-27.62.34-1.32,5.71-2.93,7.38-2,3.1,1.75,5.2,5.28,6.46,6.67-.65,9.2-1.64,16.8-1.6,24.4,0,6.15-1.82,10.25-7.89,12.1-7.91,2.41-15.89,4.63-23.64,7.48a46.18,46.18,0,0,0-11.5,6.35c-7.09,5.29-13.83,11.06-20.73,16.61a3.9,3.9,0,0,1-.84.42c-9.32,4.26-19.74,2.56-29.6,8.58-8.19,5-21.42,1.85-32.42,2a9.77,9.77,0,0,1-6-2.3c-6.79-6-13.12-4.35-19.49.54-8.05,6.19-14.06-2.08-21-3.35-7.23-1.32-14-5.09-21.1-7.34-2.2-.7-5.36-.8-7.22.29-9.7,5.67-16.94.75-24.94-4.19-4.89-3-11.25-3.58-16.73-5.78-2.91-1.17-5.41-3.39-8-5.3-2.89-2.14-5.57-6.27-8.47-6.39-10.81-.45-20.46-5-30.71-7.13-12.31-2.56-12.39-13.83-17-21.64-1.2-2.06,3.21-7.41,5.09-11.23.39-.79,1.17-1.4,1.49-2.2,4.57-11.56,4.51-11.52,13.11-1.58C262,620.7,267,627.07,275.91,627.84Zm174.57-59.43c18.16,6.46,36.09,2.43,54.62-.82L465.8,584l.91,4.32,28.92,1.58.51,2.35c-9.78,2.56-19.45,5.77-29.38,7.51s-19.86,1.94-31.82,3c34.89,3,62.89-4.09,69.76-17.22H469.28c14.21-10.08,33.9-6.64,41.68-24.12C490.94,565.88,471.48,572.66,450.48,568.41ZM515,514.81l-53.85,10c15.5,2.65,31.14,0,46.83-4.91l-9.36,7.85,4.85,1.44.75,2.53L466.1,543.35c18,.65,34.24-5.09,48.68-18.28l-4.9-2.15ZM390.1,655.61c-30.33-.1-59.73-4.55-87.84-16.38C329.3,657.19,358.91,661.23,390.1,655.61Zm69-30.74-.52-2.83-37.67,3.1.19,2.21Z" transform="translate(-196.83 -35.96)"/><path class="cls-1" d="M258.45,452.66c-1-1.22-3.3-4-5.68-6.62-2.23-2.47-5.32-4.45-6.78-7.29-7.22-14-16.52-27.38-13.48-44.56.23-1.28-1.87-2.85-2.51-4.43-3.8-9.35-6.29-18.57-3.14-29,1.6-5.31,6.89-11.15.92-17.68-1.31-1.44.54-6,1.27-9,5.47-22.93,17.6-41.32,36.62-54.83,3.25,2.56,5.63,5.92,8.54,6.45,9,1.65,17.49,3.12,20.2,13.76.26,1,1.75,2.56,2.59,2.51,9.25-.52,13.47,6.84,19.17,11.89,5.1,4.52,10.35,7.6,17.9,5.48,2.32-.65,5.78,2.52,8.65,4.07,8,4.33,15.92,8.8,24,13,1.61.85,4.22,2,5.3,1.3,8.7-5.5,14.69,1.23,22.14,3.5,12.4,3.78,25.55,9.66,38.76,1.28.91-.58,2.86.77,4.19.51,5.83-1.14,11.88-1.87,17.37-4,11.24-4.35,20.36-14.08,34.09-12.24,4,.53,8.32-1.64,13.72-2.85,3.49,8.6,8.12,17.34,6.23,27.87a8.25,8.25,0,0,0,0,4.13c10.24,26.93,1.67,49.94-14.7,71.37-.73,1-1.37,2-2.05,3l2,1.91c3.58-4,7.38-7.74,10.66-11.93,2.11-2.7,3.23-6.16,5.25-8.95,1.33-1.84,3.47-3.09,5.25-4.6,1.41,1.77,2.91,3.47,4.19,5.34.49.72.2,2.41.7,2.62,10.42,4.32,8.09,11.24,5.94,20-2.24,9.15-8.93,12.26-14.56,17.82-6.46,6.37-13.9,7.21-21.28,9.73-.59.2-1.48.45-1.63.89-4.68,13.44-20.43,13.78-28.07,23.78-5.13,6.72-11,9.84-20.65,9.24-7.15-.44-14.77,5.81-22.09,9.27a32.16,32.16,0,0,0-8,4.88c-6,5.5-12,7-19.39,2.3-1.87-1.18-6.78-.92-7.85.51-7.28,9.7-18,9.49-28.17,10.42-6.83.62-14.63,6.3-20.21-3.21-.5-.85-4.65.89-7,.59-5.78-.73-11.66-1.4-17.2-3.07-12.91-3.89-22.3-16.44-38.42-13.26-12.22,2.41-24.74-12.77-23.93-27.28.33-5.89-4.57-12.35,1.56-17.7,1.34-1.17,2.74-2.28,5-4.18,3.31,12.67,12.33,19.67,22.55,24s21.37,6,32.12,8.8l.92-4c-2.77-.53-5.52-1.25-8.31-1.55-14.31-1.57-26.83-7.1-36.76-17.53C261.75,462.43,260.92,458.1,258.45,452.66ZM278,441.94l-7.13-3.47c11,15.75,56.8,15.58,69.13,1.23-7.57,2-15.26,4.86-23.19,5.84-13.12,1.61-26.58,3.9-38.89-3.84,8.44.4,17.33,2.66,25.21.76,11.67-2.82,23-7.94,33.72-13.43,4.61-2.35,10-7.05,6.24-15.33-23.26,13.5-47.26,15.25-71.7,6.78,4.52,11.9,39.87,11.56,71.27-2.32-7.55,10.89-16.87,16.45-27.57,18.72C302.91,439.45,290.37,440.32,278,441.94Zm191.23,5.9c-12.26,6.4-24.42,14-37.52,19.26s-26.92,8.12-41.93,12.48C413.23,483.55,458.29,464.84,469.23,447.84ZM325.18,358c-24.33,6.17-47.59,10.87-70.06-2.75C269,369.59,308,371.3,325.18,358ZM296.9,342.45l-29.47-7,.36-1.87h18.83L276.37,325l1.19,6.64-21.72-4.37C267,341.59,280.36,343,296.9,342.45ZM322,387.94c-15.36,5.86-29.81,9-45.42,2.73l5-6.57c-8.53,5-9.22,7.44-3.7,10.47C286.77,399.42,314.23,399.32,322,387.94Zm-15.9,76.15c9.27,4.52,41.37.88,48.35-5.43Z" transform="translate(-196.83 -35.96)"/><path class="cls-1" d="M355.73,891.39l-5.66,1.23c-.1-2.15-.19-4.31-.28-6.48l18.93-6.72c-2.63-6.46-4.24-13.73-8.39-19-1.7-2.15-8.9,0-13.6.27,13.08,0,15.84,2.19,19.52,18.32L349.6,886.4c-4.13-12.62-8.46-25.17-12.35-37.86-4-13.09-7.6-26.32-11.37-39.49h12.31c2.77,7.07,10.29,14.54-1.74,21.69,4-2.18,8.6-4.9,8.8-7.91.85-12.44-7-17.86-18.43-13.76a2.74,2.74,0,0,1-.94,0l-.21-6.66,9.24-5.22c-5.83-4.75-2.3-17.15-15.13-13.55-.41-2.23-1.59-6.22-1.13-6.42,9.34-4,3.76-10.26,1.67-14.86s-6.21-8.07-9-11.54c-1.78-6.75-3-13.67-5.42-20.19-8.13-22.34-16.64-44.54-24.07-67.89,17.79,14.4,39,18.71,58.91,26.5l3-2.61-1,11.51,1.45.58,3.24-13.7,10,4.23-6.1,2.1.69,1.77,10.1-3.4-3.5,6.41L361.13,708l2.68,8.54c20.54-7.22,22.41-8.75,20.63-19,1.3.2,2.85.93,3.47.46,10.26-7.83,20.45-3.38,31.4-1.42,10.23,1.83,21.19-.21,31.81-.86a15.15,15.15,0,0,0,7-2.47c9.54-6.25,13.25-5.64,19.41,3.71-1-4.86,6.77-17.14,12.88-20.37,5.6-3,11.16-6,17-9.12a45.29,45.29,0,0,1-1,5.25Q491.62,721.39,476.71,770c-1.29,4.21-1.74,9.12-4.26,12.41-3.18,4.15-8.09,7-13,11l9.64-.87-3.6,13.35c-3.41.67-5.12-11.15-9.53-1.49l.35-.24c-4.26,2.42-8.77,4.52-12.67,7.43-1.52,1.13-2.81,4.48-2.24,6.15a120.21,120.21,0,0,0,7.63,17c.35.66,3.51-.17,5.37-.31l-.49.3c.58,1.86,2,4,1.62,5.55-6.41,23.69-12.85,47.37-19.88,70.88a17.13,17.13,0,0,1-7.88,9.47c-8,3.95-7.68,8.21-1.16,15.83l-2.74-10.33,9.26-4.63-20,66.58-14.48,1.2.27,2.2,7-1.8c4.26,8.82-.94,21.37-12.5,28.86-6.09-9.12-12.16-17.81-12-29.79.06-4.37-2-9.2-4.34-13.1-6.4-10.76-11-21.6-9.34-34.67.38-3-3.74-6.27-5.08-9.7-3.42-8.74-7.15-17.46-9.32-26.53-1-4.11,1.43-9,2.31-13.59L373,886l6.47,19.64L362.2,911.3l.75,2.17c5.2-1.69,10.55-3,15.51-5.26,1.65-.73,3.44-3.79,3.25-5.58-1.89-17.75-8.37-21.18-24-13A11,11,0,0,0,355.73,891.39Zm49.21,3.71c5.52-9.8-2.68-15.48-5.92-23.8L380.48,882c2.31,7,4.59,14.09,7,21.08.12.33,1.85.52,2.52.17C395,900.59,400,897.82,404.94,895.1ZM359.5,763.79c1.24,5.16,1.22,11.37,4.26,15,1.5,1.8,8.69-1,13.26-1.94a13.36,13.36,0,0,0,3.33-1.73l-4.8-19.49Zm53,125.31c8.75,3.82,13-3.72,19.16-6.5-8.85-24.36-13.24-26.51-24.81-12.85Zm-15.1-121.54,13.5-7c-2-4.1-3.54-7.46-5.26-10.72s-3.54-6.28-6-10.68c-6.8,4.8-14,8.14-18.31,13.73-1.87,2.44,2.25,9.48,3.64,14.43.25.89.47,1.8.7,2.7Zm13.22,94.63c.89-.32,2-.42,2.63-1,2.65-2.51,7.81-6.09,7.27-7.6-2.52-7.15-6.52-13.8-10.34-20.43-.26-.46-3.49.51-5.16,1.22-2.59,1.11-5,2.57-7.54,3.88-7.81,4.07-7.95,6.22-.83,13.51C398.8,858.55,400.53,865.94,410.59,862.19ZM363.3,824.34c-4.4,1.11-9.39,2.67-6.62,8.38,3,6.13,2.7,16.35,14.19,14.32l15.56-7.41c-1.2-2.83-1.69-4.3-2.42-5.65-1.77-3.28-3.62-6.53-5.5-9.75C373.49,815.66,370.2,815.7,363.3,824.34Zm-34.08-79.49c-8.08,2.37-8.85,7.07-5.21,14.1,5.09,9.81,8.57,11.06,18.32,5.52a60.8,60.8,0,0,1,5.84-2.58c.65-1.75,2.33-4,1.77-5.17-3-6.33-6.51-12.4-10.71-20.14ZM442.79,845.17c1.25-2.23,4-5,3.47-6.6-2.46-7.21-5.87-14.09-9-21.31C430,820.92,424,823.61,418.43,827c-1.37.83-1.38,3.89-2,5.93.89,1.3,1.85,2.56,2.65,3.92,2.62,4.48,4.42,11.86,8,12.79C431.55,850.83,437.46,846.89,442.79,845.17Zm-25.47-86.94c6.28-7.08,13-11.41,14-16.81.83-4.39-5.14-10.07-8.09-15.18-5.58,4.4-13.32,7.82-15.9,13.57C405.85,743.12,412.69,750.18,417.32,758.22Zm64.86-48.31c-5.45-5.81-9.23-13.17-13.72-13.64-4.13-.43-13,6.88-12.73,10.18.49,5.78,6.39,11.1,10,16.61Zm-88.06,229-5-2.17c-4.93,4.24-11,7.77-14.23,13.05-1.34,2.22,2.67,10.93,5.63,11.76,4.63,1.3,14.37-.56,15-2.89C397,952.62,394.82,945.58,394.12,938.93ZM457.94,729.1l-1.3-1.82L440.57,739l-9.29-18.07,18.44-12.15-1.3-2.15c-5.94,4.14-15.83,7.5-16.85,12.62-1.37,6.9,4.1,15.16,7.18,24.51ZM404.06,957l17.15-8.41-1-2.08L405,953.38l-5.53-17.22c7.57-.82,13.06-9,20.82-2.73-2.23-2.38-5.09-4.54-7.65-4.23a30.32,30.32,0,0,0-11.28,4.33c-1.66,1-3.46,4.09-3.08,5.75C399.53,944.91,401.77,950.32,404.06,957Zm18.37-40.82-6.53-17.7,15.46-8,4.6,6.34,1.35-.78-3.74-8.74c-22.17,8.24-24.47,15.39-10.81,32.44l7.63-3.65-.53-1.37Zm27.14-145.92c6.42-3.91,11.63-6.39,15.91-10,2.06-1.72,3.86-5.94,3.18-8.28-1.5-5.16-4.65-9.85-7.12-14.73l-1.64.73,7.67,17.91L451,766l-6.76-12.05-1.52.82Zm-42.69,129.9,7.31,23.33a26.23,26.23,0,0,0-2-14c-1.34-3.17-4.73-8.54-5.84-8.22A66.77,66.77,0,0,0,388,909.6c-1.16.77,1.26,6.88,2,10.53C384.49,904.41,400.55,908.16,406.88,900.15Zm-45,19.79c3.48,6.18,5.94,13.48,10.92,18,2,1.81,10.1-1.59,14.29-4.34,2.08-1.37,1.62-6.62,2.31-10.11,2.05,9.71-6.73,10.08-11.83,11C365.53,936.57,369,923.75,361.9,919.95Zm4.22-63.53-2.37,1.81c4.25,6.12,7.39,14,13.19,17.67,3.13,2,10.81-3.18,16.43-5.12l-.9-2.22-16.2,5.71Zm51.35-78.52c-.51,7.86-4.72,11.23-18,14.27l-4.72-7.67-1.41.76,5.42,10.55C417.89,789.35,421.14,786.1,417.46,777.9Zm-45.3-30.75,1.95-1-10.19-20.78-14,7.52.54,1.23,12.29-4.86ZM401.51,728l1.49,2.34c3.39-2.32,6.72-4.75,10.2-6.93,10.64-6.66,10.89-8.81,1.9-18.45,3.68,11.44,3.69,11.46-7.1,18.89C405.89,725.28,403.68,726.6,401.51,728Zm-4.69,4.1,1.87-1.4-11.13-20.54-10.46,5.64.57,1.17,8.85-3ZM388,988l-5.5-15.54,6.25-4.51c-3.67.31-8.39,2.75-8.1,4.17,1.22,6,3.16,12.27,6.56,17.27,1,1.51,7.59-.73,11.62-1.26l-.36-2.06ZM372.34,728,370,729.39c3.54,5.09,6.1,12.2,11,14.56,3.21,1.56,9.73-3.71,14.77-5.92l-.95-2-14.88,6.75Zm58.87,82.89,1.72-1.31L422.57,789,411,795.19l.68,1.54,9.31-4.24Zm-62.63-18-2,1.2c3.36,4.95,5.8,11.45,10.45,14.21,2.5,1.48,8.81-3.45,13.4-5.49l-1-1.9L376,807Z" transform="translate(-196.83 -35.96)"/><path class="cls-1" d="M361.13,708l-2.52-11.88c3.54-1.55,7.42-4.88,10.55-4.27,5.52,1.07,14.72,1.93,12.6,10-1.23,4.68-8.81,8-14,11C366.8,713.45,363.39,709.74,361.13,708Z" transform="translate(-196.83 -35.96)"/><path class="cls-1" d="M455.91,804.45c2.4,2.32,7.22,5.3,6.79,6.85-2.21,8-5.75,15.7-8.83,23.5l.49-.3L442,816.79l14.22-12.58Z" transform="translate(-196.83 -35.96)"/><path class="cls-1" d="M319.8,783.63c12.82-3.6,9.3,8.8,15.13,13.55l-9.24,5.22Z" transform="translate(-196.83 -35.96)"/><path class="cls-1" d="M315.59,774.08l-5.35-18.41,3.23-1.4c2.49,5.53,5.23,11,7.29,16.65.45,1.26-1.49,3.38-2.33,5.1Z" transform="translate(-196.83 -35.96)"/><path d="M443.5,90.14c-12.1-11.41-25.77-15.43-41.16-13.67-3.08.35-5.91,2.83-8.85,4.33,1.62,2.88,2.56,6.64,5,8.49,15.31,11.73,32.81,16.62,52.05,15.23,1.5-.11,3-.36,4.9.91-2.06.74-4.11,2.11-6.17,2.11-19.64,0-38.16-4.17-53.8-16.66-2.93-2.34-6-7.82-5.11-10.72s6.4-5.62,10.17-6.07c14.82-1.78,28.85,1.37,41.2,10,2.2,1.54,4.75,5.36,4.21,7.32-.61,2.23-4.35,4.66-7,5.07a39.52,39.52,0,0,1-29.57-6.73c-1.58-1.12-3.45-3.47-3.25-5,.18-1.38,2.93-3.29,4.68-3.44,8.13-.7,16.19-.53,22.94,7.67l-8.6,2.26,3.64-3.87L410.17,82C415.82,94.29,433.57,97.85,443.5,90.14Z" transform="translate(-196.83 -35.96)"/><path d="M492.4,246.43l-26.61,8.78h20.58c-8.71,6.35-17.48,5.81-33.82-1.94l39.15-7.62Z" transform="translate(-196.83 -35.96)"/><path d="M491.7,245.66c-.77-1-1.57-2.82-2.3-2.79-8.41.33-16.79,1.18-25.2,1.36-3.09.06-6.21-1.29-7-1.46l50.31-6.83L492.4,246.43Z" transform="translate(-196.83 -35.96)"/><path d="M464.84,215.58c9.78-1.3,17.3-1.72,24.46-3.53,3.11-.79,6.46-4,7.77-7,.58-1.32-3.6-4.75-5.25-8.38,2.82,2,7.68,3.67,8,6,.42,3.22-1.59,8.22-4.24,10.12C487,218.92,477.2,219.24,464.84,215.58Z" transform="translate(-196.83 -35.96)"/><path d="M511.5,172.93c-9.87,14.46-35,23.2-54.22,15.53C477.88,192.13,495.65,186.21,511.5,172.93Z" transform="translate(-196.83 -35.96)"/><path d="M340.65,286.79l-34.59-16.93,1.24-2.56,34.5,16.92Z" transform="translate(-196.83 -35.96)"/><path d="M475,272.39c-9.83,8.73-21.68,8.49-34.11,5.46Z" transform="translate(-196.83 -35.96)"/><path d="M450.48,568.41c21,4.25,40.46-2.53,60.48-7-7.78,17.48-27.48,14-41.68,24.12H504.7c-6.87,13.13-34.86,20.26-69.76,17.22,12-1.06,22-1.28,31.82-3s19.59-4.94,29.38-7.51l-.51-2.35-28.92-1.58L465.8,584l39.3-16.44C486.56,570.84,468.64,574.87,450.48,568.41Z" transform="translate(-196.83 -35.96)"/><path d="M515,514.81l-5.12,8.11,4.9,2.15c-14.43,13.19-30.71,18.93-48.68,18.28l38.12-11.62-.75-2.53-4.85-1.44,9.36-7.85c-15.69,4.89-31.33,7.57-46.83,4.91Z" transform="translate(-196.83 -35.96)"/><path d="M390.1,655.61c-31.19,5.62-60.79,1.57-87.84-16.38C330.37,651.06,359.76,655.51,390.1,655.61Z" transform="translate(-196.83 -35.96)"/><path d="M459.11,624.87l-38,2.48-.19-2.21,37.67-3.1Z" transform="translate(-196.83 -35.96)"/><path d="M278,441.94c12.38-1.61,24.92-2.48,37.1-5.07,10.7-2.27,20-7.84,27.57-18.72-31.41,13.88-66.75,14.22-71.27,2.32,24.44,8.47,48.45,6.72,71.7-6.78,3.76,8.28-1.63,13-6.24,15.33-10.76,5.49-22.05,10.61-33.72,13.43-7.88,1.91-16.77-.36-25.21-.75Z" transform="translate(-196.83 -35.96)"/><path d="M469.23,447.84c-10.94,17-56,35.72-79.45,31.73,15-4.35,28.94-7.25,41.93-12.48S457,454.24,469.23,447.84Z" transform="translate(-196.83 -35.96)"/><path d="M278,441.94l-.07-.24c12.31,7.74,25.77,5.45,38.89,3.84,7.92-1,15.61-3.86,23.19-5.84-12.33,14.35-58.08,14.52-69.13-1.23Z" transform="translate(-196.83 -35.96)"/><path d="M325.18,358C308,371.3,269,369.59,255.13,355.23,277.59,368.85,300.85,364.15,325.18,358Z" transform="translate(-196.83 -35.96)"/><path d="M296.9,342.45c-16.54.51-29.93-.86-41.07-15.23l21.72,4.37L276.37,325l10.26,8.62H267.79l-.36,1.87Z" transform="translate(-196.83 -35.96)"/><path d="M322,387.94c-7.81,11.38-35.26,11.48-44.1,6.63-5.52-3-4.84-5.44,3.7-10.47l-5,6.57C292.22,396.93,306.67,393.8,322,387.94Z" transform="translate(-196.83 -35.96)"/><path d="M306.13,464.08l48.35-5.43C347.5,465,315.4,468.6,306.13,464.08Z" transform="translate(-196.83 -35.96)"/><path class="cls-1" d="M417.32,758.22c-4.63-8-11.47-15.1-10-18.42,2.58-5.74,10.32-9.17,15.9-13.57,3,5.11,8.92,10.79,8.09,15.18C430.3,746.81,423.6,751.14,417.32,758.22Z" transform="translate(-196.83 -35.96)"/><path class="cls-1" d="M442.79,845.17c-5.32,1.72-11.24,5.66-15.78,4.46-3.53-.94-5.33-8.31-8-12.79-.79-1.36-1.76-2.61-2.65-3.92l21.26-14.27Z" transform="translate(-196.83 -35.96)"/><path class="cls-1" d="M348.17,761.89a60.8,60.8,0,0,0-5.84,2.58C332.58,770,329.1,768.77,324,759c-3.65-7-2.87-11.74,5.21-14.1l10.16-5Z" transform="translate(-196.83 -35.96)"/><path class="cls-1" d="M482.18,709.91l-16.41,13.15c-3.64-5.51-9.54-10.83-10-16.61-.28-3.3,8.6-10.62,12.73-10.18C473,696.75,476.73,704.1,482.18,709.91Z" transform="translate(-196.83 -35.96)"/><path class="cls-1" d="M370.87,847c-11.49,2-11.21-8.2-14.19-14.32-2.77-5.7,2.22-7.26,6.62-8.38l9.65-5.1,9.91,18.21Z" transform="translate(-196.83 -35.96)"/><path class="cls-1" d="M394.12,938.93c.7,6.65,2.93,13.7,1.35,19.75-.61,2.34-10.35,4.2-15,2.89-3-.84-7-9.54-5.63-11.76,3.2-5.28,9.3-8.81,14.23-13.05Z" transform="translate(-196.83 -35.96)"/><path class="cls-1" d="M410.59,862.19c-10.06,3.75-11.79-3.65-14-10.44l-3-8.63,16.54-8.66,8.47,20.24Z" transform="translate(-196.83 -35.96)"/><path class="cls-1" d="M397.37,767.56,385.6,770l-2.44-16.54,15.9-10.31,7.69,14.94Z" transform="translate(-196.83 -35.96)"/><path class="cls-1" d="M412.47,889.1l-5.65-19.35,14.39-6.21c.57.6,1.17,1,1.39,1.51,2.2,5.39,4.34,10.8,7,17.57Z" transform="translate(-196.83 -35.96)"/><path class="cls-1" d="M380.36,775.15a13.36,13.36,0,0,1-3.33,1.73c-4.58.91-11.76,3.74-13.26,1.94-3-3.66-3-9.87-4.26-15l14.76-7.06Z" transform="translate(-196.83 -35.96)"/><path d="M397.37,767.56l9.38-9.47-7.69-14.94-15.9,10.31L385.6,770c-.23-.9-.45-1.81-.7-2.7-1.39-5-5.51-12-3.64-14.43,4.29-5.59,11.51-8.93,18.31-13.73,2.5,4.4,4.36,7.49,6,10.68s3.26,6.62,5.26,10.72Z" transform="translate(-196.83 -35.96)"/><path d="M457.94,729.1l-19.19,14.66c-3.08-9.35-8.55-17.61-7.18-24.51,1-5.12,10.91-8.48,16.85-12.62l1.3,2.15-18.44,12.15L440.57,739l16.07-11.73Z" transform="translate(-196.83 -35.96)"/><path d="M404.06,957c-2.29-6.68-4.53-12.09-5.83-17.71-.38-1.66,1.42-4.76,3.08-5.75a30.32,30.32,0,0,1,11.28-4.33c2.56-.32,5.43,1.84,7.65,4.23-7.76-6.31-13.25,1.91-20.82,2.73L405,953.38l15.25-6.87,1,2.08Z" transform="translate(-196.83 -35.96)"/><path d="M355.73,891.39a11,11,0,0,1,2-1.77c15.61-8.17,22.1-4.75,24,13,.19,1.79-1.6,4.85-3.25,5.58-5,2.21-10.31,3.57-15.51,5.26l-.75-2.17,17.29-5.71L373,886l-17.43,5.26Z" transform="translate(-196.83 -35.96)"/><path d="M422.43,916.17l7.44-1.47.53,1.37-7.63,3.65c-13.66-17.05-11.36-24.2,10.81-32.44l3.74,8.74-1.35.78-4.6-6.34-15.46,8Z" transform="translate(-196.83 -35.96)"/><path d="M449.58,770.26l-6.83-15.5,1.52-.82L451,766l16.54-10.07L459.9,738l1.64-.73c2.47,4.88,5.62,9.56,7.12,14.73.68,2.34-1.12,6.56-3.18,8.28C461.2,763.86,456,766.35,449.58,770.26Z" transform="translate(-196.83 -35.96)"/><path d="M410.59,862.19l8-7.49-8.47-20.24-16.54,8.66,3,8.63c-7.12-7.28-7-9.43.83-13.51,2.51-1.31,4.95-2.77,7.54-3.88,1.67-.71,4.9-1.68,5.16-1.22,3.82,6.63,7.82,13.28,10.34,20.43.53,1.51-4.62,5.1-7.27,7.6C412.58,861.78,411.48,861.87,410.59,862.19Z" transform="translate(-196.83 -35.96)"/><path d="M412.47,889.1l17.17-6.48c-2.7-6.76-4.84-12.18-7-17.57-.22-.53-.82-.91-1.39-1.51l-14.39,6.21c11.57-13.66,16-11.52,24.81,12.85C425.5,885.38,421.22,892.92,412.47,889.1Z" transform="translate(-196.83 -35.96)"/><path d="M349.6,886.4,366.26,879c-3.69-16.14-6.44-18.35-19.52-18.32,4.7-.22,11.91-2.42,13.6-.27,4.15,5.26,5.76,12.53,8.39,19l-18.93,6.72Z" transform="translate(-196.83 -35.96)"/><path d="M406.88,900.15c-6.33,8-22.39,4.26-16.88,20-.77-3.65-3.18-9.76-2-10.53a66.77,66.77,0,0,1,18.42-8.35c1.11-.32,4.51,5.05,5.84,8.22a26.23,26.23,0,0,1,2,14Z" transform="translate(-196.83 -35.96)"/><path d="M442.79,845.17l-5.13-26.52-21.26,14.27c.64-2,.65-5.1,2-5.93,5.57-3.37,11.55-6.06,18.81-9.73,3.16,7.21,6.57,14.1,9,21.31C446.81,840.18,444,842.94,442.79,845.17Z" transform="translate(-196.83 -35.96)"/><path d="M370.87,847l12-9.59L373,819.25l-9.65,5.1c6.9-8.65,10.19-8.68,15.21-.11,1.89,3.22,3.73,6.47,5.5,9.75.73,1.35,1.22,2.82,2.42,5.65Z" transform="translate(-196.83 -35.96)"/><path d="M361.9,919.95c7.14,3.8,3.64,16.63,15.7,14.52,5.1-.89,13.88-1.26,11.83-11-.69,3.49-.23,8.75-2.31,10.11-4.2,2.75-12.3,6.16-14.29,4.34C367.84,933.43,365.37,926.13,361.9,919.95Z" transform="translate(-196.83 -35.96)"/><path d="M456.26,804.21,442,816.79l12.32,17.7c-1.86.14-5,1-5.37.31a120.21,120.21,0,0,1-7.63-17c-.57-1.67.72-5,2.24-6.15C447.5,808.73,452,806.63,456.26,804.21Z" transform="translate(-196.83 -35.96)"/><path d="M366.11,856.42l10.15,17.85,16.2-5.71.9,2.22c-5.63,1.94-13.3,7.11-16.43,5.12-5.8-3.68-8.94-11.55-13.19-17.67Z" transform="translate(-196.83 -35.96)"/><path d="M417.46,777.9c3.68,8.2.43,11.45-18.72,17.91l-5.42-10.55,1.41-.76,4.72,7.67C412.75,789.14,417,785.77,417.46,777.9Z" transform="translate(-196.83 -35.96)"/><path d="M380.48,882,399,871.3c3.24,8.31,11.43,14,5.92,23.8l.17.21-5.47-19.5-19.33,6Z" transform="translate(-196.83 -35.96)"/><path d="M372.17,747.15l-9.38-17.9-12.29,4.86-.54-1.23,14-7.52,10.19,20.78Z" transform="translate(-196.83 -35.96)"/><path d="M325.89,809.05a2.74,2.74,0,0,0,.94,0c11.45-4.1,19.27,1.32,18.43,13.76-.2,3-4.78,5.72-8.8,7.91,12-7.15,4.52-14.62,1.74-21.69h-12.3Z" transform="translate(-196.83 -35.96)"/><path d="M401.51,728c2.17-1.38,4.38-2.7,6.49-4.16,10.79-7.43,10.78-7.44,7.1-18.89,9,9.64,8.73,11.79-1.9,18.45-3.48,2.18-6.8,4.62-10.2,6.93Z" transform="translate(-196.83 -35.96)"/><path d="M404.94,895.1c-5,2.72-9.9,5.49-14.91,8.11-.67.35-2.41.16-2.52-.17-2.44-7-4.72-14-7-21.08l-.17-.12,7.44,19.39,17.35-5.93Z" transform="translate(-196.83 -35.96)"/><path d="M396.83,732.08l-10.29-18.17-8.85,3-.57-1.17,10.46-5.64,11.13,20.54Z" transform="translate(-196.83 -35.96)"/><path d="M388,988l10.47-1.93.36,2.06c-4,.53-10.59,2.77-11.62,1.26-3.4-5-5.34-11.25-6.56-17.27-.29-1.42,4.42-3.85,8.1-4.17l-6.25,4.51Z" transform="translate(-196.83 -35.96)"/><path d="M372.34,728l7.56,14.76L394.78,736l.95,2c-5,2.21-11.57,7.48-14.77,5.92-4.86-2.36-7.42-9.47-11-14.56Z" transform="translate(-196.83 -35.96)"/><path d="M431.21,810.92,421,792.48l-9.31,4.24-.68-1.54L422.57,789l10.37,20.6Z" transform="translate(-196.83 -35.96)"/><path d="M368.59,792.91,376,807l13.36-6.06,1,1.9c-4.59,2-10.9,7-13.4,5.49-4.66-2.77-7.09-9.27-10.45-14.21Z" transform="translate(-196.83 -35.96)"/><path d="M380.36,775.15l-6.1-18.43-14.76,7.06,16.06-8.12Z" transform="translate(-196.83 -35.96)"/><path d="M348.17,761.89l-8.79-22-10.16,5,10-8.28c4.2,7.74,7.73,13.81,10.71,20.14C350.5,757.91,348.82,760.14,348.17,761.89Z" transform="translate(-196.83 -35.96)"/><path class="cls-1" d="M405.11,895.31l-17.35,5.93-7.44-19.39,19.33-6Z" transform="translate(-196.83 -35.96)"/></svg>
